<svg width="60" height="60" viewBox="0 0 60 60" fill="none" xmlns="http://www.w3.org/2000/svg">
<path d="M22.2882 25.1677C21.7585 25.1655 21.2379 25.0303 20.7739 24.7748C20.31 24.5192 19.9176 24.1514 19.6326 23.7049C19.4994 23.4914 19.4555 23.234 19.5102 22.9884C19.565 22.7427 19.714 22.5284 19.9252 22.3915C20.1364 22.2546 20.3929 22.2062 20.6395 22.2566C20.8861 22.307 21.103 22.4522 21.2436 22.6609C21.355 22.8384 21.509 22.985 21.6917 23.0875C21.8744 23.19 22.0799 23.2451 22.2894 23.2477C22.3236 23.2477 22.3584 23.2477 22.3926 23.2429C22.6229 23.2191 22.8425 23.1331 23.0278 22.9942C23.213 22.8552 23.357 22.6685 23.4444 22.4539L23.451 22.4377C23.5508 22.1971 23.5835 21.934 23.5455 21.6763C23.5076 21.4186 23.4005 21.176 23.2356 20.9743C23.0457 20.7429 22.7788 20.5876 22.4838 20.5369C22.4094 20.5321 22.3344 20.5249 22.2552 20.5147C20.6706 20.3005 19.4784 18.9007 19.4796 17.2579C19.4773 16.4434 19.7738 15.6563 20.313 15.0457C20.846 14.4388 21.5921 14.06 22.3968 13.9879C22.485 13.9795 22.5768 13.9753 22.6716 13.9753C23.1746 13.9784 23.6696 14.1009 24.116 14.3328C24.5624 14.5647 24.9473 14.8994 25.239 15.3091L25.2516 15.3271C25.278 15.3637 25.3026 15.4003 25.3272 15.4375C25.4658 15.6512 25.5138 15.9111 25.4608 16.1602C25.4077 16.4093 25.2579 16.627 25.0443 16.7656C24.8306 16.9042 24.5707 16.9523 24.3216 16.8992C24.0726 16.8462 23.8548 16.6964 23.7162 16.4827C23.706 16.4665 23.6952 16.4515 23.6844 16.4359C23.6736 16.4203 23.6736 16.4209 23.6682 16.4131C23.5549 16.2541 23.4055 16.1242 23.2322 16.0342C23.059 15.9442 22.8668 15.8966 22.6716 15.8953C22.6362 15.8953 22.6014 15.8953 22.5678 15.9001C21.9108 15.9601 21.3996 16.5541 21.3996 17.2585C21.3996 17.9443 21.876 18.5257 22.509 18.6115C22.548 18.6163 22.5852 18.6199 22.62 18.6211C22.6548 18.6223 22.68 18.6253 22.707 18.6289C23.4891 18.7367 24.2026 19.133 24.7074 19.7401C25.0966 20.2091 25.351 20.7751 25.4433 21.3775C25.5356 21.98 25.4622 22.5962 25.2312 23.1601C25.2312 23.1673 25.2252 23.1739 25.2228 23.1811C25.0027 23.7223 24.6384 24.1927 24.1696 24.5412C23.7007 24.8897 23.1452 25.1029 22.5636 25.1575C22.4748 25.1635 22.38 25.1677 22.2882 25.1677Z" fill="black"/>
<path d="M22.4808 15.9048C22.2262 15.9048 21.982 15.8036 21.802 15.6236C21.6219 15.4436 21.5208 15.1994 21.5208 14.9448V13.1214C21.5208 12.8668 21.6219 12.6226 21.802 12.4426C21.982 12.2625 22.2262 12.1614 22.4808 12.1614C22.7354 12.1614 22.9796 12.2625 23.1596 12.4426C23.3396 12.6226 23.4408 12.8668 23.4408 13.1214V14.9448C23.4408 15.1994 23.3396 15.4436 23.1596 15.6236C22.9796 15.8036 22.7354 15.9048 22.4808 15.9048ZM22.479 26.9808C22.2244 26.9808 21.9802 26.8796 21.8002 26.6996C21.6201 26.5196 21.519 26.2754 21.519 26.0208V24.1974C21.519 23.9428 21.6201 23.6986 21.8002 23.5186C21.9802 23.3385 22.2244 23.2374 22.479 23.2374C22.7336 23.2374 22.9778 23.3385 23.1578 23.5186C23.3378 23.6986 23.439 23.9428 23.439 24.1974V26.0208C23.439 26.2754 23.3378 26.5196 23.1578 26.6996C22.9778 26.8796 22.7336 26.9808 22.479 26.9808ZM36.027 19.7448C35.7815 19.7452 35.5451 19.6515 35.3666 19.483C35.188 19.3144 35.0808 19.0839 35.067 18.8388C35.0239 18.0718 34.9102 17.3103 34.7274 16.5642C34.6667 16.3169 34.7067 16.0556 34.8386 15.8378C34.9705 15.62 35.1836 15.4636 35.4309 15.4029C35.6782 15.3422 35.9394 15.3822 36.1572 15.5141C36.375 15.646 36.5315 15.8591 36.5922 16.1064C36.8032 16.9671 36.9344 17.8454 36.984 18.7302C36.9911 18.8561 36.9734 18.9821 36.9318 19.1011C36.8902 19.2201 36.8256 19.3298 36.7417 19.4239C36.6577 19.5179 36.556 19.5945 36.4425 19.6492C36.3289 19.704 36.2057 19.7359 36.0798 19.743C36.0642 19.7442 36.0456 19.7448 36.027 19.7448Z" fill="black"/>
<path d="M22.4802 34.1027C19.756 34.1016 17.0869 33.3345 14.7778 31.8891C12.4686 30.4437 10.6123 28.3782 9.4209 25.9283C8.22946 23.4784 7.75083 20.7429 8.03965 18.034C8.32848 15.3251 9.37312 12.752 11.0543 10.6084C12.7355 8.46481 14.9856 6.83709 17.5476 5.91104C20.1096 4.985 22.8803 4.79795 25.5436 5.37125C28.2068 5.94454 30.6552 7.25509 32.6092 9.15328C34.5633 11.0515 35.9443 13.4608 36.5946 16.1063C36.613 16.1809 36.6223 16.2575 36.6222 16.3343C36.6222 16.571 36.5347 16.7994 36.3765 16.9756C36.2184 17.1517 36.0007 17.2632 35.7654 17.2887C35.53 17.3141 35.2936 17.2517 35.1014 17.1134C34.9093 16.9752 34.775 16.7708 34.7244 16.5395C34.0469 13.8044 32.473 11.375 30.2538 9.63878C28.0346 7.90252 25.2979 6.95941 22.4802 6.9599C15.5262 6.9599 9.86879 12.6173 9.86879 19.5713C9.86879 26.5253 15.5262 32.1827 22.4802 32.1827C24.1367 32.1841 25.7773 31.8589 27.308 31.2256C28.8386 30.5923 30.2294 29.6634 31.4008 28.492C32.5721 27.3207 33.5009 25.9298 34.1341 24.3991C34.7673 22.8684 35.0925 21.2278 35.091 19.5713C35.091 19.3235 35.0838 19.0781 35.07 18.8417C35.0607 18.7149 35.0767 18.5875 35.117 18.4669C35.1573 18.3463 35.2212 18.2349 35.305 18.1392C35.3887 18.0435 35.4906 17.9654 35.6048 17.9094C35.719 17.8534 35.8432 17.8207 35.9701 17.8131C36.097 17.8055 36.2242 17.8232 36.3443 17.8652C36.4643 17.9072 36.5748 17.9726 36.6694 18.0576C36.7639 18.1426 36.8406 18.2456 36.895 18.3605C36.9495 18.4755 36.9805 18.6001 36.9864 18.7271C37.0026 19.0019 37.011 19.2857 37.011 19.5713C37.0115 21.4797 36.6359 23.3694 35.9059 25.1326C35.1758 26.8959 34.1055 28.4979 32.7561 29.8474C31.4067 31.1968 29.8047 32.2672 28.0415 32.9974C26.2783 33.7275 24.3886 34.1031 22.4802 34.1027ZM22.4802 30.1811C16.6302 30.1811 11.8704 25.4213 11.8704 19.5713C11.8704 13.7213 16.6302 8.9615 22.4802 8.9615C24.8512 8.96249 27.1535 9.75747 29.0199 11.2196C30.8863 12.6818 32.2093 14.7269 32.7778 17.0287C33.3463 19.3305 33.1276 21.7564 32.1565 23.9194C31.1854 26.0824 29.5179 27.8578 27.42 28.9625C25.8961 29.7618 24.201 30.1795 22.4802 30.1799V30.1811ZM22.4802 10.8815C17.6886 10.8815 13.7904 14.7815 13.7904 19.5713C13.7904 24.3611 17.6886 28.2599 22.4802 28.2599C23.8901 28.2651 25.2796 27.923 26.526 27.2639C27.5786 26.7104 28.5064 25.9466 29.2518 25.0199C30.4928 23.4762 31.1694 21.555 31.1694 19.5743C31.1694 17.5936 30.4928 15.6724 29.2518 14.1287C28.5068 13.2001 27.5788 12.4346 26.5254 11.8799C25.2794 11.2202 23.8901 10.8773 22.4802 10.8815Z" fill="black"/>
<path d="M37.3284 25.1677C36.8252 25.1644 36.33 25.0417 35.8835 24.8097C35.4369 24.5778 35.0518 24.2431 34.7598 23.8333C34.6863 23.7309 34.6337 23.615 34.605 23.4922C34.5762 23.3695 34.572 23.2422 34.5924 23.1178C34.6129 22.9934 34.6576 22.8743 34.7241 22.7671C34.7906 22.66 34.8776 22.5671 34.98 22.4935C35.0824 22.42 35.1983 22.3674 35.3211 22.3387C35.4439 22.31 35.5711 22.3057 35.6955 22.3262C35.8199 22.3466 35.9391 22.3914 36.0462 22.4579C36.1533 22.5244 36.2463 22.6113 36.3198 22.7137C36.433 22.8772 36.5838 23.011 36.7596 23.1039C36.9353 23.1969 37.1308 23.2462 37.3296 23.2477C37.3644 23.2477 37.3986 23.2477 37.4316 23.2429C38.0916 23.1829 38.601 22.5883 38.601 21.8839C38.601 21.2107 38.1402 20.6377 37.521 20.5369C37.446 20.5321 37.371 20.5249 37.2918 20.5141C36.5084 20.4071 35.7938 20.0096 35.2896 19.4005C35.2061 19.3042 35.1427 19.1922 35.1029 19.0711C35.0632 18.95 35.048 18.8222 35.0582 18.6951C35.0684 18.568 35.1038 18.4443 35.1623 18.331C35.2209 18.2178 35.3014 18.1174 35.3991 18.0356C35.4969 17.9538 35.61 17.8923 35.7318 17.8547C35.8536 17.817 35.9816 17.804 36.1085 17.8164C36.2354 17.8288 36.3585 17.8664 36.4707 17.9269C36.5829 17.9873 36.6819 18.0696 36.762 18.1687C36.9592 18.4091 37.2391 18.5671 37.5468 18.6115C37.5858 18.6163 37.6224 18.6199 37.6572 18.6211C37.692 18.6223 37.7172 18.6253 37.7448 18.6289C39.3258 18.8425 40.518 20.2417 40.518 21.8845C40.5202 22.6994 40.2235 23.4867 39.684 24.0973C39.1509 24.7043 38.4048 25.0831 37.6002 25.1551C37.5156 25.1635 37.422 25.1677 37.3284 25.1677ZM35.6622 17.2951C35.5041 17.2951 35.3484 17.256 35.209 17.1814C35.0697 17.1067 34.9509 16.9988 34.8633 16.8672C34.7756 16.7355 34.7219 16.5843 34.7068 16.4269C34.6916 16.2695 34.7156 16.1108 34.7766 15.9649C34.9967 15.423 35.3616 14.9519 35.8313 14.6032C36.301 14.2546 36.8575 14.0417 37.44 13.9879C37.5282 13.9795 37.62 13.9753 37.7142 13.9753C38.2439 13.9774 38.7646 14.1124 39.2286 14.368C39.6926 14.6236 40.085 14.9915 40.3698 15.4381C40.5083 15.6518 40.5563 15.9117 40.5032 16.1607C40.4501 16.4097 40.3002 16.6274 40.0866 16.7659C39.873 16.9045 39.6131 16.9524 39.3641 16.8993C39.115 16.8462 38.8973 16.6964 38.7588 16.4827C38.6478 16.3052 38.494 16.1584 38.3115 16.0557C38.1289 15.9531 37.9236 15.898 37.7142 15.8953C37.6788 15.8953 37.6452 15.8953 37.6104 15.9001C37.3772 15.9244 37.1552 16.0122 36.9684 16.154C36.7817 16.2958 36.6374 16.486 36.5514 16.7041C36.4783 16.8796 36.3548 17.0294 36.1965 17.1347C36.0382 17.2399 35.8523 17.2957 35.6622 17.2951Z" fill="black"/>
<path d="M37.5204 15.9048C37.2658 15.9048 37.0216 15.8036 36.8416 15.6236C36.6615 15.4436 36.5604 15.1994 36.5604 14.9448V13.1214C36.5604 12.8668 36.6615 12.6226 36.8416 12.4426C37.0216 12.2625 37.2658 12.1614 37.5204 12.1614C37.775 12.1614 38.0192 12.2625 38.1992 12.4426C38.3793 12.6226 38.4804 12.8668 38.4804 13.1214V14.9448C38.4804 15.1994 38.3793 15.4436 38.1992 15.6236C38.0192 15.8036 37.775 15.9048 37.5204 15.9048ZM37.5186 26.9808C37.264 26.9808 37.0198 26.8796 36.8398 26.6996C36.6597 26.5196 36.5586 26.2754 36.5586 26.0208V24.1974C36.5586 23.9428 36.6597 23.6986 36.8398 23.5186C37.0198 23.3385 37.264 23.2374 37.5186 23.2374C37.7732 23.2374 38.0174 23.3385 38.1974 23.5186C38.3775 23.6986 38.4786 23.9428 38.4786 24.1974V26.0208C38.4786 26.2754 38.3775 26.5196 38.1974 26.6996C38.0174 26.8796 37.7732 26.9808 37.5186 26.9808Z" fill="black"/>
<path d="M37.5198 30.1801C35.799 30.1799 34.1039 29.7621 32.58 28.9627C32.4543 28.8967 32.3448 28.8036 32.2594 28.6902C32.174 28.5767 32.1148 28.4458 32.0861 28.3067C32.0574 28.1677 32.0599 28.024 32.0934 27.886C32.127 27.7481 32.1907 27.6192 32.28 27.5089C34.1021 25.2652 35.0947 22.4618 35.0904 19.5715C35.0904 19.3237 35.0832 19.0783 35.0694 18.8419C35.0601 18.715 35.0761 18.5876 35.1164 18.467C35.1567 18.3464 35.2206 18.2351 35.3044 18.1394C35.3881 18.0437 35.49 17.9656 35.6042 17.9096C35.7184 17.8536 35.8426 17.8209 35.9695 17.8133C36.0964 17.8057 36.2236 17.8234 36.3437 17.8654C36.4637 17.9073 36.5742 17.9727 36.6688 18.0578C36.7633 18.1428 36.84 18.2458 36.8944 18.3607C36.9489 18.4756 36.9799 18.6002 36.9858 18.7273C37.002 19.0021 37.0104 19.2859 37.0104 19.5715C37.0113 20.9116 36.827 22.2454 36.4626 23.5351C36.0419 25.0287 35.3819 26.4442 34.5084 27.7267C35.4723 28.0828 36.4922 28.2634 37.5198 28.2601C42.3108 28.2601 46.209 24.3601 46.209 19.5703C46.209 14.7805 42.309 10.8805 37.5198 10.8805C36.4919 10.8777 35.4718 11.059 34.5078 11.4157C35.4757 12.8429 36.1822 14.4308 36.5946 16.1053C36.613 16.1799 36.6223 16.2564 36.6222 16.3333C36.6222 16.57 36.5347 16.7984 36.3765 16.9745C36.2184 17.1507 36.0007 17.2622 35.7654 17.2876C35.53 17.3131 35.2936 17.2507 35.1014 17.1124C34.9093 16.9741 34.775 16.7697 34.7244 16.5385C34.2778 14.7448 33.4434 13.0709 32.28 11.6347C32.1906 11.5243 32.1268 11.3954 32.0932 11.2574C32.0596 11.1194 32.057 10.9756 32.0857 10.8365C32.1144 10.6973 32.1737 10.5663 32.2591 10.4528C32.3446 10.3394 32.4542 10.2463 32.58 10.1803C34.1042 9.3805 35.7997 8.96235 37.521 8.96167C43.371 8.96167 48.1302 13.7215 48.1302 19.5715C48.1302 25.4215 43.3698 30.1801 37.5198 30.1801Z" fill="black"/>
<path d="M37.5198 34.1028C34.6538 34.1076 31.8509 33.2605 29.4672 31.6692C29.3599 31.6004 29.2674 31.5108 29.1951 31.4058C29.1228 31.3008 29.0721 31.1825 29.0461 31.0577C29.02 30.9329 29.019 30.8042 29.0432 30.679C29.0674 30.5539 29.1163 30.4348 29.187 30.3287C29.2578 30.2227 29.3489 30.1317 29.4551 30.0613C29.5614 29.9908 29.6806 29.9422 29.8058 29.9183C29.931 29.8944 30.0597 29.8957 30.1845 29.9221C30.3092 29.9485 30.4274 29.9995 30.5322 30.072C32.6008 31.4525 35.0329 32.1872 37.5198 32.1828C44.4738 32.1828 50.1312 26.5254 50.1312 19.5714C50.1312 12.6174 44.4738 6.96002 37.5198 6.96002C35.033 6.95598 32.6009 7.69064 30.5322 9.07082C30.4274 9.14339 30.3092 9.19435 30.1845 9.22074C30.0597 9.24713 29.931 9.24841 29.8058 9.22452C29.6806 9.20062 29.5614 9.15202 29.4551 9.08156C29.3489 9.0111 29.2578 8.92018 29.187 8.81412C29.1163 8.70805 29.0674 8.58896 29.0432 8.4638C29.019 8.33864 29.02 8.2099 29.0461 8.08512C29.0721 7.96034 29.1228 7.842 29.1951 7.73701C29.2674 7.63202 29.3599 7.54248 29.4672 7.47362C31.3553 6.21688 33.5113 5.41953 35.7628 5.14538C38.0142 4.87122 40.2986 5.12787 42.4331 5.89478C44.5676 6.66169 46.4929 7.91758 48.0551 9.56195C49.6172 11.2063 50.7728 13.1935 51.4293 15.3645C52.0858 17.5355 52.225 19.83 51.8358 22.0645C51.4466 24.2989 50.5398 26.4112 49.1879 28.2324C47.8361 30.0536 46.0767 31.5331 44.0506 32.5524C42.0245 33.5718 39.7879 34.1027 37.5198 34.1028ZM24.3366 23.769C24.082 23.769 23.8378 23.6679 23.6578 23.4878C23.4778 23.3078 23.3766 23.0636 23.3766 22.809C23.3766 22.6192 23.4329 22.4335 23.5384 22.2757C23.6439 22.1178 23.7938 21.9948 23.9692 21.9221C24.1447 21.8494 24.3377 21.8304 24.5239 21.8675C24.7101 21.9045 24.8812 21.9959 25.0154 22.1302C25.1497 22.2645 25.2411 22.4355 25.2782 22.6217C25.3152 22.808 25.2962 23.001 25.2235 23.1764C25.1509 23.3518 25.0278 23.5017 24.87 23.6072C24.7121 23.7127 24.5265 23.769 24.3366 23.769ZM24.459 16.8294C24.2044 16.8294 23.9602 16.7283 23.7802 16.5482C23.6002 16.3682 23.499 16.124 23.499 15.8694C23.499 15.6796 23.5553 15.4939 23.6608 15.3361C23.7663 15.1782 23.9162 15.0552 24.0916 14.9825C24.2671 14.9098 24.4601 14.8908 24.6463 14.9279C24.8325 14.9649 25.0036 15.0563 25.1378 15.1906C25.2721 15.3249 25.3635 15.4959 25.4006 15.6821C25.4376 15.8684 25.4186 16.0614 25.3459 16.2368C25.2733 16.4122 25.1502 16.5621 24.9924 16.6676C24.8345 16.7731 24.6489 16.8294 24.459 16.8294ZM33.8808 54.96C33.7842 54.96 33.6906 54.9564 33.6012 54.9486C30.621 54.693 24.3816 52.4178 20.7942 50.5542C19.9005 50.0943 18.9185 49.8314 17.9145 49.7832C16.9106 49.735 15.9079 49.9025 14.9742 50.2746C14.7381 50.3643 14.4762 50.3574 14.2452 50.2552C14.0142 50.1531 13.8327 49.9641 13.7401 49.7291C13.6475 49.4941 13.6513 49.2321 13.7505 48.9999C13.8498 48.7677 14.0366 48.5839 14.2704 48.4884C15.4598 48.0148 16.737 47.8019 18.0157 47.864C19.2944 47.9261 20.5449 48.2618 21.6828 48.8484C25.4142 50.787 31.2876 52.821 33.768 53.0334C34.3734 53.085 36.468 52.8054 42.8058 49.1028C46.5012 46.9428 50.2722 44.4054 51.7698 43.2924C52.1088 43.0404 52.5234 42.5124 52.5732 42.3186C52.7856 41.4966 52.7856 41.1678 52.5732 40.7868C52.1616 40.05 51.1014 39.7188 50.3046 40.0794L38.5566 45.3918C38.3246 45.4968 38.0604 45.5052 37.8221 45.4154C37.5839 45.3256 37.3911 45.1447 37.2861 44.9127C37.1812 44.6807 37.1727 44.4165 37.2625 44.1782C37.3524 43.94 37.5332 43.7472 37.7652 43.6422L49.5138 38.3298C51.225 37.5558 53.3496 38.2386 54.2496 39.8508C54.8454 40.9188 54.6666 41.8908 54.4296 42.798C54.219 43.6158 53.3868 44.478 52.9122 44.8332C51.3792 45.9732 47.5302 48.5652 43.7712 50.7606C41.5812 52.0398 39.6714 53.0406 38.0952 53.7414C36.2544 54.5598 34.8708 54.96 33.8808 54.96Z" fill="black"/>
<path d="M35.2956 47.6088C34.8496 47.6084 34.407 47.5314 33.987 47.3814L28.0614 45.2712C27.8215 45.1857 27.6254 45.0085 27.5162 44.7784C27.407 44.5484 27.3936 44.2844 27.4791 44.0445C27.5645 43.8046 27.7418 43.6085 27.9718 43.4993C28.2019 43.3901 28.4659 43.3767 28.7058 43.4622L34.6314 45.573C34.9852 45.7028 35.3694 45.725 35.7358 45.6369C36.1023 45.5489 36.4344 45.3544 36.6906 45.078C36.7212 45.045 36.7506 45.0132 36.7758 44.982C37.1748 44.5116 37.3416 43.953 37.242 43.4124C37.14 42.8544 36.7698 42.3744 36.2004 42.0606C30.4692 38.9004 21.2442 38.1168 20.133 38.1168C19.773 38.1168 18.4764 38.2506 14.2044 39.4878C13.9598 39.5586 13.6971 39.5293 13.4741 39.4065C13.2511 39.2836 13.086 39.0772 13.0152 38.8326C12.9444 38.588 12.9736 38.3253 13.0965 38.1023C13.2194 37.8793 13.4258 37.7142 13.6704 37.6434C18.6648 36.1968 19.77 36.1968 20.133 36.1968C20.9214 36.1968 23.649 36.4098 27.0474 37.0674C29.9106 37.6212 33.9834 38.6454 37.1274 40.3794C38.1948 40.9674 38.9274 41.9466 39.1308 43.0656C39.333 44.1666 39.0072 45.3192 38.2368 46.2276C38.1924 46.2792 38.1504 46.3266 38.1066 46.3746C37.7497 46.7646 37.3154 47.0758 36.8313 47.2884C36.3473 47.5009 35.8242 47.61 35.2956 47.6088Z" fill="black"/>
<path d="M9.11999 54.1199C8.38161 54.1186 7.67137 53.8365 7.13324 53.3309C6.59511 52.8253 6.26935 52.134 6.22199 51.3971L5.35619 37.6499C5.33211 37.2691 5.38331 36.8872 5.50685 36.5261C5.6304 36.165 5.82387 35.8319 6.07622 35.5456C6.32857 35.2593 6.63485 35.0255 6.97757 34.8576C7.32028 34.6898 7.69272 34.591 8.07359 34.5671L11.7216 34.3367C12.4907 34.2886 13.2475 34.5478 13.8257 35.0573C14.4039 35.5668 14.7561 36.285 14.805 37.0541L15.6714 50.8013C15.7197 51.5705 15.4606 52.3273 14.951 52.9054C14.4414 53.4835 13.7231 53.8355 12.954 53.8841L9.30539 54.1145C9.24359 54.1199 9.17999 54.1199 9.11999 54.1199ZM11.9058 36.2513H11.8428L8.19419 36.4811C7.93326 36.4978 7.68962 36.6174 7.51681 36.8136C7.344 37.0098 7.25616 37.2666 7.27259 37.5275L8.13899 51.2747C8.14663 51.4043 8.17978 51.531 8.23653 51.6477C8.29328 51.7643 8.37252 51.8686 8.46969 51.9546C8.56686 52.0406 8.68005 52.1065 8.80277 52.1486C8.92549 52.1907 9.05531 52.2081 9.18479 52.1999L12.8328 51.9701C13.0937 51.9536 13.3374 51.8342 13.5103 51.6381C13.6833 51.442 13.7713 51.1853 13.755 50.9243L12.8886 37.1753C12.8729 36.9253 12.7625 36.6906 12.58 36.5189C12.3974 36.3473 12.1564 36.2516 11.9058 36.2513Z" fill="black"/>
</svg>
