<svg width="60" height="60" viewBox="0 0 60 60" fill="none" xmlns="http://www.w3.org/2000/svg">
<path d="M42.8858 23.6243H40.7386C40.4716 23.6243 40.2155 23.7303 40.0267 23.9191C39.8379 24.1079 39.7319 24.364 39.7319 24.631C39.7319 24.898 39.8379 25.1541 40.0267 25.3429C40.2155 25.5317 40.4716 25.6378 40.7386 25.6378H42.8858C43.1529 25.6378 43.4089 25.5317 43.5977 25.3429C43.7865 25.1541 43.8926 24.898 43.8926 24.631C43.8926 24.364 43.7865 24.1079 43.5977 23.9191C43.4089 23.7303 43.1529 23.6243 42.8858 23.6243ZM43.1505 31.9412C42.9565 31.6912 42.7078 31.4891 42.4235 31.3504C42.1392 31.2117 41.8269 31.1401 41.5105 31.141H18.4894C18.1731 31.1401 17.8607 31.2117 17.5764 31.3504C17.2921 31.4892 17.0434 31.6913 16.8495 31.9412C16.654 32.1899 16.5182 32.4802 16.4526 32.7897C16.387 33.0991 16.3933 33.4195 16.471 33.7262L17.0079 35.874C17.12 36.3244 17.3797 36.7242 17.7455 37.0098C18.1113 37.2954 18.5622 37.4503 19.0264 37.4498H40.9737C41.4378 37.4503 41.8887 37.2954 42.2546 37.0098C42.6204 36.7241 42.88 36.3243 42.9921 35.8739L43.5291 33.7262C43.6067 33.4195 43.613 33.0991 43.5473 32.7897C43.4817 32.4802 43.3459 32.1899 43.1505 31.9412ZM41.5757 33.238L41.0387 35.3856C41.0352 35.4001 41.0268 35.413 41.015 35.4222C41.0032 35.4315 40.9887 35.4365 40.9737 35.4364H19.0264C19.0114 35.4364 18.9969 35.4314 18.985 35.4222C18.9732 35.4131 18.9648 35.4002 18.9612 35.3857L18.4242 33.238C18.4218 33.2285 18.4163 33.2062 18.4364 33.1804C18.4566 33.1547 18.4796 33.1547 18.4893 33.1547H41.5105C41.5204 33.1547 41.5432 33.1547 41.5634 33.1804C41.5835 33.2062 41.5781 33.2284 41.5757 33.238Z" fill="black"/>
<path d="M56.8457 25.6376C58.585 25.6376 60 24.2226 60 22.4833C60 20.744 58.585 19.3289 56.8457 19.3289H55.7719C54.2036 19.3289 52.8993 20.4797 52.6578 21.981L49.9723 14.5955C49.367 12.9306 47.7701 11.8122 45.9987 11.8122H38.342L37.7753 8.97894C37.4816 7.50952 36.1806 6.44312 34.6822 6.44312H25.3175C23.8192 6.44312 22.5184 7.50952 22.2245 8.97894L21.6579 11.8122H14.0012C12.2298 11.8122 10.6329 12.9307 10.0276 14.5954L7.34215 21.9809C7.10086 20.4797 5.79656 19.3289 4.22824 19.3289H3.15445C1.41504 19.3289 0 20.744 0 22.4833C0 24.2226 1.41504 25.6376 3.15434 25.6376H4.22813C4.70751 25.6381 5.18061 25.5286 5.61105 25.3176L3.30949 28.1946C2.55871 29.1355 2.14911 30.303 2.14758 31.5067V51.4765C2.14758 52.6238 3.08086 53.5571 4.22813 53.5571H7.44961C8.59688 53.5571 9.53016 52.6238 9.53016 51.4765V47.1141H50.4697V51.4765C50.4697 52.6238 51.403 53.5571 52.5503 53.5571H55.7718C56.919 53.5571 57.8523 52.6238 57.8523 51.4765V31.5067C57.8508 30.303 57.4412 29.1354 56.6904 28.1946L54.3888 25.3176C54.8193 25.5286 55.2924 25.6381 55.7718 25.6376H56.8457ZM4.22824 23.6242H3.15445C2.52527 23.6242 2.01352 23.1124 2.01352 22.4833C2.01352 21.8541 2.52527 21.3423 3.15445 21.3423H4.22824C4.85742 21.3423 5.36918 21.8541 5.36918 22.4833C5.36918 23.1123 4.85731 23.6242 4.22824 23.6242ZM24.1989 9.37362C24.3052 8.84218 24.7757 8.4564 25.3175 8.4564H34.6822C35.2242 8.4564 35.6947 8.84218 35.8009 9.37362L36.2886 11.8122H23.7111L24.1989 9.37362ZM7.51676 51.4765C7.51673 51.4943 7.50964 51.5114 7.49706 51.524C7.48447 51.5365 7.46741 51.5436 7.44961 51.5437H4.22813C4.21033 51.5436 4.19326 51.5365 4.18068 51.524C4.16809 51.5114 4.16101 51.4943 4.16098 51.4765V46.4857C4.82634 46.8972 5.59336 47.1149 6.3757 47.1141H7.51664L7.51676 51.4765ZM41.8792 45.1007H18.1208V42.886C18.1208 42.8489 18.1509 42.8188 18.188 42.8188H41.8121C41.8492 42.8188 41.8793 42.8489 41.8793 42.886V45.1007H41.8792ZM55.8389 51.4765C55.8389 51.4943 55.8318 51.5114 55.8192 51.524C55.8066 51.5365 55.7896 51.5436 55.7718 51.5437H52.5503C52.5325 51.5436 52.5154 51.5365 52.5028 51.524C52.4902 51.5114 52.4832 51.4943 52.4831 51.4765V47.1141H53.6241C54.4064 47.1149 55.1734 46.8972 55.8388 46.4857V51.4765H55.8389ZM55.1184 29.4524C55.584 30.036 55.838 30.7602 55.839 31.5068V42.886C55.839 44.1072 54.8455 45.1007 53.6243 45.1007H43.8926V42.886C43.8926 41.7387 42.9593 40.8054 41.812 40.8054H18.188C17.0407 40.8054 16.1074 41.7387 16.1074 42.886V45.1007H6.37582C5.15461 45.1007 4.16109 44.1072 4.16109 42.886V31.5068C4.16204 30.7602 4.4161 30.036 4.8818 29.4524L7.93348 25.6376H36.443C36.71 25.6376 36.966 25.5315 37.1549 25.3427C37.3437 25.1539 37.4497 24.8979 37.4497 24.6308C37.4497 24.3638 37.3437 24.1078 37.1549 23.919C36.966 23.7302 36.71 23.6241 36.443 23.6241H8.88703L11.9201 15.2833C12.2371 14.4113 13.0736 13.8255 14.0014 13.8255H45.9988C46.9267 13.8255 47.763 14.4114 48.0802 15.2833L51.1132 23.6241H47.1814C46.9144 23.6241 46.6584 23.7302 46.4696 23.919C46.2808 24.1078 46.1747 24.3638 46.1747 24.6308C46.1747 24.8979 46.2808 25.1539 46.4696 25.3427C46.6584 25.5315 46.9144 25.6376 47.1814 25.6376H52.0668L55.1184 29.4524ZM54.6308 22.4833C54.6308 21.8541 55.1426 21.3423 55.7718 21.3423H56.8455C57.4747 21.3423 57.9865 21.8541 57.9865 22.4833C57.9865 23.1124 57.4747 23.6242 56.8455 23.6242H55.7718C55.1427 23.6242 54.6308 23.1123 54.6308 22.4833Z" fill="black"/>
<path d="M10.6711 38.6577C9.52385 38.6577 8.59057 39.591 8.59057 40.7382C8.59057 41.8855 9.52385 42.8188 10.6711 42.8188C11.8184 42.8188 12.7517 41.8855 12.7517 40.7382C12.7517 39.591 11.8184 38.6577 10.6711 38.6577ZM49.3289 38.6577C48.1817 38.6577 47.2484 39.591 47.2484 40.7382C47.2484 41.8855 48.1817 42.8188 49.3289 42.8188C50.4762 42.8188 51.4095 41.8855 51.4095 40.7382C51.4095 39.591 50.4761 38.6577 49.3289 38.6577ZM10.1343 30.0671C8.09885 30.0671 6.44299 31.723 6.44299 33.7584C6.44299 35.7939 8.09885 37.4497 10.1343 37.4497C12.1697 37.4497 13.8256 35.7939 13.8256 33.7584C13.8256 31.723 12.1697 30.0671 10.1343 30.0671ZM10.1343 35.4362C9.20909 35.4362 8.45639 34.6836 8.45639 33.7583C8.45639 32.833 9.20897 32.0804 10.1343 32.0804C11.0596 32.0804 11.8122 32.833 11.8122 33.7583C11.8122 34.6836 11.0595 35.4362 10.1343 35.4362ZM49.8658 30.0671C47.8303 30.0671 46.1745 31.723 46.1745 33.7584C46.1745 35.7939 47.8303 37.4497 49.8658 37.4497C51.9012 37.4497 53.5571 35.7939 53.5571 33.7584C53.5571 31.723 51.9012 30.0671 49.8658 30.0671ZM49.8658 35.4362C48.9406 35.4362 48.1879 34.6836 48.1879 33.7583C48.1879 32.833 48.9405 32.0804 49.8658 32.0804C50.791 32.0804 51.5437 32.833 51.5437 33.7583C51.5437 34.6836 50.7911 35.4362 49.8658 35.4362Z" fill="black"/>
</svg>
