<svg width="60" height="60" viewBox="0 0 60 60" fill="none" xmlns="http://www.w3.org/2000/svg">
<path d="M57.2727 32.7273C56.4545 32.7273 55.9091 33.2728 55.9091 34.0909V51.8182C55.9091 52.6364 55.3636 53.1818 54.5455 53.1818H5.45449C4.63629 53.1818 4.0909 52.6363 4.0909 51.8182V34.0909C4.0909 33.2727 3.54539 32.7273 2.7273 32.7273C1.90922 32.7273 1.36371 33.2728 1.36371 34.0909V51.8182C1.36371 54.1364 3.1364 55.9091 5.45461 55.9091H54.5455C56.8637 55.9091 58.6364 54.1364 58.6364 51.8182V34.0909C58.6364 33.2727 58.0909 32.7273 57.2727 32.7273Z" fill="black"/>
<path d="M55.9091 13.6363H4.0909C1.7727 13.6363 0 15.409 0 17.7272V26.4545C0 28.3635 1.36359 29.9999 3.13641 30.409L24.5455 35.1817V39.5453C24.5455 40.3635 25.091 40.9089 25.9091 40.9089H34.0909C34.9091 40.9089 35.4545 40.3634 35.4545 39.5453V35.1817L56.8636 30.409C58.6364 29.9999 60 28.3635 60 26.4544V17.7271C60 15.409 58.2273 13.6363 55.9091 13.6363ZM32.7273 38.1817H27.2728V32.7272H32.7273V38.1817ZM57.2727 26.4544C57.2727 27.1362 56.8636 27.6817 56.1818 27.818L35.4545 32.4544V31.3635C35.4545 30.5453 34.909 29.9999 34.0909 29.9999H25.9091C25.0909 29.9999 24.5455 30.5454 24.5455 31.3635V32.4544L3.8182 27.8181C3.13641 27.6817 2.7273 27.1363 2.7273 26.4545V17.7272C2.7273 16.909 3.27281 16.3636 4.0909 16.3636H55.9091C56.7273 16.3636 57.2727 16.9091 57.2727 17.7272V26.4544ZM36.8182 4.09082H23.1818C20.8636 4.09082 19.0909 5.86352 19.0909 8.18172V9.54531C19.0909 10.3635 19.6364 10.9089 20.4545 10.9089C21.2726 10.9089 21.8181 10.3634 21.8181 9.54531V8.18172C21.8181 7.36352 22.3636 6.81812 23.1817 6.81812H36.8181C37.6363 6.81812 38.1817 7.36363 38.1817 8.18172V9.54531C38.1817 10.3635 38.7272 10.9089 39.5453 10.9089C40.3635 10.9089 40.9089 10.3634 40.9089 9.54531V8.18172C40.9091 5.86352 39.1364 4.09082 36.8182 4.09082Z" fill="black"/>
</svg>
