<svg width="24" height="24" viewBox="0 0 24 24" fill="none" xmlns="http://www.w3.org/2000/svg">
<path d="M21.56 10.96L20.7 9.97001H21.07C21.71 9.97001 22.23 9.45001 22.23 8.81001V8.43001C22.23 7.79001 21.71 7.27001 21.07 7.27001H20.74C20.46 7.27001 20.24 7.49001 20.24 7.77001C20.24 8.05001 20.46 8.27001 20.74 8.27001H21.07C21.16 8.27001 21.23 8.34001 21.23 8.43001V8.81001C21.23 8.90001 21.16 8.97001 21.07 8.97001H20.37L19.62 6.52001C19.3873 5.75576 18.9142 5.08702 18.271 4.61318C17.6278 4.13934 16.8488 3.88572 16.05 3.89001H7.94998C6.29998 3.89001 4.86998 4.95001 4.37998 6.52001L3.62998 8.97001H2.92998C2.83998 8.97001 2.76998 8.90001 2.76998 8.81001V8.43001C2.76998 8.34001 2.83998 8.27001 2.92998 8.27001H3.25998C3.53998 8.27001 3.75998 8.05001 3.75998 7.77001C3.75998 7.49001 3.53998 7.27001 3.25998 7.27001H2.92998C2.28998 7.27001 1.76998 7.79001 1.76998 8.43001V8.81001C1.76998 9.45001 2.28998 9.97001 2.92998 9.97001H3.29998L2.43998 10.96C1.89998 11.58 1.59998 12.38 1.59998 13.21V16.08C1.59998 16.69 1.93998 17.22 2.44998 17.5V18.63C2.44998 19.46 3.11998 20.13 3.94998 20.13H5.66998C6.49998 20.13 7.16998 19.46 7.16998 18.63V17.71H16.83V18.63C16.83 19.46 17.5 20.13 18.33 20.13H20.05C20.88 20.13 21.55 19.46 21.55 18.63V17.5C22.05 17.22 22.4 16.7 22.4 16.08V13.21C22.4 12.38 22.1 11.58 21.56 10.96ZM3.19998 11.62L4.15998 10.52C4.20845 10.4698 4.24292 10.4077 4.25998 10.34L4.45998 9.69001L4.48998 9.60001L5.34998 6.82001C5.52162 6.2616 5.86768 5.77288 6.3374 5.42554C6.80712 5.0782 7.37578 4.89051 7.95998 4.89001H16.05C17.26 4.89001 18.31 5.66001 18.66 6.82001L19.52 9.60001C19.52 9.60001 19.53 9.66001 19.55 9.69001L19.75 10.34C19.767 10.4077 19.8015 10.4698 19.85 10.52L20.81 11.62C21.19 12.06 21.41 12.63 21.41 13.22V14.67H19.13C18.8 14.67 18.52 14.4 18.52 14.06V13.42C18.52 13.09 18.79 12.81 19.13 12.81H20.35C20.63 12.81 20.85 12.59 20.85 12.31C20.85 12.03 20.63 11.81 20.35 11.81H19.13C18.24 11.81 17.52 12.53 17.52 13.42V14.06C17.52 14.95 18.24 15.67 19.13 15.67H21.41V16.09C21.41 16.43 21.13 16.71 20.79 16.71H15.65V15C15.65 14.72 15.43 14.5 15.15 14.5H8.86998C8.58998 14.5 8.36998 14.72 8.36998 15V16.71H3.22998C2.88998 16.71 2.60998 16.43 2.60998 16.09V15.67H4.88998C5.77998 15.67 6.49998 14.95 6.49998 14.06V13.42C6.49998 12.53 5.77998 11.81 4.88998 11.81H3.66998C3.38998 11.81 3.16998 12.03 3.16998 12.31C3.16998 12.59 3.38998 12.81 3.66998 12.81H4.88998C5.21998 12.81 5.49998 13.08 5.49998 13.42V14.06C5.49998 14.39 5.22998 14.67 4.88998 14.67H2.60998V13.22C2.60998 12.63 2.81998 12.07 3.20998 11.62H3.19998ZM6.16998 18.62C6.16998 18.9 5.94998 19.12 5.66998 19.12H3.94998C3.66998 19.12 3.44998 18.9 3.44998 18.62V17.7H6.16998V18.62ZM9.35998 16.7V15.49H14.64V16.7H9.35998ZM20.55 18.62C20.55 18.9 20.33 19.12 20.05 19.12H18.33C18.05 19.12 17.83 18.9 17.83 18.62V17.7H20.55V18.62Z" fill="black"/>
<path d="M5.98999 9.96002H18.01C18.29 9.96002 18.51 9.74002 18.51 9.46002C18.51 9.18002 18.29 8.96002 18.01 8.96002H5.98999C5.70999 8.96002 5.48999 9.18002 5.48999 9.46002C5.48999 9.74002 5.70999 9.96002 5.98999 9.96002ZM16.09 11.8H7.90999C7.62999 11.8 7.40999 12.02 7.40999 12.3C7.40999 12.58 7.62999 12.8 7.90999 12.8H16.09C16.37 12.8 16.59 12.58 16.59 12.3C16.59 12.02 16.37 11.8 16.09 11.8Z" fill="black"/>
</svg>
