<svg width="80" height="80" viewBox="0 0 80 80" fill="none" xmlns="http://www.w3.org/2000/svg">
<g clip-path="url(#clip0_20_102)">
<path d="M49.2667 65.66C49.2667 66.102 49.0911 66.526 48.7785 66.8385C48.466 67.1511 48.042 67.3267 47.6 67.3267H31.1C29.74 67.3267 29.28 66.3983 29.1717 66.115C28.64 64.72 29.7717 63.7083 31.4867 62.1767C32.15 61.585 33.385 60.48 33.5933 60.0617C34.2533 58.845 34.5833 57.475 34.7533 56.0467H31.1C30.658 56.0467 30.2341 55.8711 29.9215 55.5585C29.6089 55.246 29.4333 54.822 29.4333 54.38C29.4333 53.938 29.6089 53.5141 29.9215 53.2015C30.2341 52.8889 30.658 52.7133 31.1 52.7133H34.9367L34.9483 51.8283C34.9917 47.515 35.0467 42.145 41.0217 41.4733C45.095 41.0217 47.26 44.2417 47.8433 46.01C47.9765 46.4275 47.9399 46.8806 47.7415 47.2713C47.5431 47.662 47.1987 47.9588 46.7831 48.0975C46.3674 48.2362 45.9138 48.2057 45.5205 48.0124C45.1272 47.8192 44.8259 47.4788 44.6817 47.065C44.5867 46.795 43.7033 44.515 41.3933 44.7883C38.6 45.1017 38.3333 46.875 38.2817 51.8633L38.2717 52.715H43.7333C43.9522 52.715 44.1689 52.7581 44.3711 52.8419C44.5734 52.9256 44.7571 53.0484 44.9118 53.2032C45.0666 53.3579 45.1894 53.5417 45.2731 53.7439C45.3569 53.9461 45.4 54.1628 45.4 54.3817C45.4 54.6006 45.3569 54.8173 45.2731 55.0195C45.1894 55.2217 45.0666 55.4054 44.9118 55.5602C44.7571 55.715 44.5734 55.8377 44.3711 55.9215C44.1689 56.0052 43.9522 56.0484 43.7333 56.0484H38.1033C37.9133 57.94 37.5067 59.8367 36.565 61.57C36.2367 62.275 35.51 63.025 34.45 63.995H47.6C47.8188 63.9948 48.0355 64.0377 48.2377 64.1213C48.4399 64.2048 48.6236 64.3275 48.7784 64.4821C48.9332 64.6367 49.056 64.8204 49.1398 65.0225C49.2235 65.2246 49.2667 65.4412 49.2667 65.66ZM40.6517 3.93501C41.3083 5.14168 41.9867 6.38834 42.905 7.30334C42.9773 7.37748 43.0541 7.44706 43.135 7.51168C43.4017 7.28834 43.83 6.76668 44.1317 6.40001C45.7667 4.40668 48.81 0.69001 55.2367 3.26001C55.5462 3.38367 55.8116 3.59731 55.9984 3.87331C56.1853 4.14932 56.2851 4.47502 56.285 4.80834C56.285 8.60001 54.015 13.9267 51.2167 18.2317C54.1733 17.2983 57.3467 16.6667 59.4317 16.6667C64.9 16.6667 65.49 19.9433 65.49 21.3533C65.49 23.5067 64.4133 27.12 57.2017 27.12C55.48 27.12 53.62 26.91 51.8617 26.61C60.1917 34.7917 69.2033 50.4083 69.325 63.695C69.405 72.16 62.9867 79.7834 55.5883 80.0067H24.2333C14.97 80.0067 10.7117 71.5633 10.675 63.7183C10.6017 48.1067 22.9917 29.2167 32.21 23.025C27.3383 18.9467 21.57 10.7533 21.645 6.61501C21.7183 5.06501 21.9767 3.44668 23.3467 2.81834C24.8067 2.15001 26.1333 3.19168 27.3067 4.10668C28.0767 4.70834 29.2383 5.61168 29.83 5.48501C30.1733 5.40834 30.6217 4.87501 31.03 4.06168C31.075 3.97263 31.128 3.88784 31.1883 3.80834C33.2833 1.02001 34.875 -0.12499 36.5683 0.00501009C38.5917 0.151677 39.64 2.07501 40.6517 3.93501ZM65.9917 63.725C65.88 51.405 57.2183 36.95 49.85 29.4117C50.88 31.22 52.2233 33.15 53.9517 34.8767C54.1861 35.1094 54.346 35.4065 54.4111 35.7303C54.4761 36.0541 54.4434 36.39 54.3171 36.6952C54.1908 37.0003 53.9766 37.261 53.7017 37.4441C53.4268 37.6272 53.1036 37.7244 52.7733 37.7233C52.3467 37.7233 51.9217 37.56 51.595 37.2367C48.7717 34.4183 46.8633 31.175 45.6417 28.5583C45.0033 30.2 44.105 32.0033 42.8567 33.5933C42.724 33.7722 42.5569 33.9226 42.3651 34.0358C42.1734 34.1489 41.9609 34.2225 41.7402 34.2522C41.5195 34.2819 41.2952 34.267 41.0803 34.2086C40.8655 34.1501 40.6645 34.0492 40.4894 33.9117C40.3142 33.7743 40.1683 33.6032 40.0604 33.4084C39.9524 33.2137 39.8846 32.9993 39.8609 32.7779C39.8372 32.5565 39.8581 32.3326 39.9223 32.1194C39.9866 31.9062 40.0929 31.7081 40.235 31.5367C41.76 29.595 42.67 27.1967 43.185 25.4267C40.245 26.3017 37.7017 26.175 35.2683 25.0533C27.6383 29.2 13.935 48.2067 14.0083 63.7017C14.0383 69.95 17.25 76.6734 24.2333 76.6734H55.51C61.58 76.4734 66.0483 69.68 65.9917 63.725ZM59.4317 20C56.1633 20 51.7633 21.4183 49.045 22.6C51.2917 23.175 54.4433 23.7867 57.2017 23.7867C62.1567 23.7867 62.1567 21.955 62.1567 21.3533C62.1567 20.9133 62.1567 20 59.4317 20ZM40.55 9.66501C39.29 8.40668 38.4583 6.87834 37.725 5.53001C37.2833 4.72001 36.6167 3.49334 36.2633 3.31501C36.2867 3.34168 35.595 3.52001 33.94 5.69834C33.0483 7.41168 31.9133 8.43501 30.565 8.73834C28.44 9.21668 26.6 7.78334 25.2567 6.73501L24.99 6.52668C24.9851 6.59328 24.9812 6.65995 24.9783 6.72668C24.925 9.66001 31.12 18.6367 35.895 21.615C35.935 21.64 35.9567 21.68 35.9933 21.7083C36.0267 21.725 36.0633 21.72 36.095 21.7383C38.3933 23.0233 40.7 22.9733 43.8467 21.655C43.9 21.6317 43.9583 21.6383 44.0133 21.6217C47.4433 18.9833 52.1767 11.015 52.8667 5.97168C49.5533 5.06001 48.1667 6.74168 46.71 8.51501C45.7733 9.65668 44.8067 10.835 43.2917 10.91C42.3433 10.9783 41.4233 10.5367 40.55 9.66501Z" fill="url(#paint0_linear_20_102)"/>
</g>
<defs>
<linearGradient id="paint0_linear_20_102" x1="40.0002" y1="-0.00488281" x2="40.0002" y2="80.0067" gradientUnits="userSpaceOnUse">
<stop stop-color="#3DB54F"/>
<stop offset="1" stop-color="#95D854"/>
</linearGradient>
<clipPath id="clip0_20_102">
<rect width="80" height="80" fill="white"/>
</clipPath>
</defs>
</svg>
