<svg width="80" height="80" viewBox="0 0 80 80" fill="none" xmlns="http://www.w3.org/2000/svg">
<path d="M74.3825 34.8787C74.0976 26.1832 70.5048 17.9241 64.3375 11.7875C57.8338 5.28248 49.19 1.70123 40 1.70123C21.4388 1.70123 6.27252 16.475 5.61877 34.8787C4.18757 35.5127 2.97095 36.5481 2.11633 37.8596C1.26171 39.171 0.805773 40.7022 0.803772 42.2675V51.345C0.806088 53.4885 1.65864 55.5437 3.17437 57.0594C4.6901 58.5751 6.74521 59.4277 8.88877 59.43C10.2757 59.4283 11.6053 58.8766 12.586 57.896C13.5667 56.9153 14.1184 55.5856 14.12 54.1987V39.4125C14.12 36.7037 12.0425 34.495 9.40127 34.2325C10.3763 18.1987 23.7238 5.45123 40 5.45123C48.19 5.45123 55.8913 8.64373 61.6875 14.44C67.01 19.7625 70.125 26.7 70.5938 34.2337C67.955 34.4987 65.8813 36.7062 65.8813 39.4125V54.1975C65.8813 56.9287 67.9913 59.1512 70.6638 59.3825V63.1187C70.6615 65.1418 69.8567 67.0814 68.426 68.5118C66.9953 69.9423 65.0556 70.7467 63.0325 70.7487H57.3813C57.0003 69.6379 56.281 68.6744 55.3244 67.9933C54.3677 67.3122 53.2218 66.9478 52.0475 66.9512H46.2225C45.3863 66.9512 44.5838 67.1287 43.8488 67.4712C42.8646 67.9259 42.031 68.6526 41.4463 69.5655C40.8616 70.4785 40.5501 71.5396 40.5488 72.6237C40.5488 74.1412 41.14 75.5662 42.2113 76.6325C42.7363 77.1618 43.3613 77.5815 44.0499 77.8673C44.7385 78.1532 45.477 78.2994 46.2225 78.2975H52.0475C54.4625 78.2975 56.5913 76.7362 57.385 74.4987H63.0325C69.3088 74.4987 74.4138 69.3937 74.4138 63.1187V58.715C75.8365 58.0775 77.0447 57.0425 77.8931 55.7346C78.7416 54.4267 79.1941 52.9015 79.1963 51.3425V42.265C79.1963 38.9725 77.2138 36.1375 74.3825 34.8787ZM10.3688 39.4125V54.1975C10.3688 55.0137 9.70502 55.6787 8.88752 55.6787C7.73821 55.6774 6.63636 55.2203 5.82368 54.4076C5.01099 53.5949 4.55385 52.493 4.55252 51.3437V42.2662C4.55385 41.1169 5.01099 40.0151 5.82368 39.2024C6.63636 38.3897 7.73821 37.9326 8.88752 37.9312C9.70502 37.9312 10.3688 38.5962 10.3688 39.4125ZM53.9288 73.0262C53.8356 73.4567 53.5982 73.8425 53.2558 74.1196C52.9135 74.3967 52.4867 74.5486 52.0463 74.55H46.2213C45.7088 74.55 45.2275 74.35 44.86 73.9825C44.6811 73.8049 44.5393 73.5936 44.4428 73.3608C44.3462 73.128 44.2968 72.8783 44.2975 72.6262C44.2988 72.1165 44.502 71.6281 44.8625 71.2678C45.223 70.9076 45.7116 70.7047 46.2213 70.7037H52.0463C52.5588 70.7037 53.04 70.9025 53.4063 71.27C53.7688 71.6312 53.9688 72.1137 53.9688 72.6262C53.97 72.7637 53.955 72.9012 53.9288 73.0262ZM75.4463 51.3437C75.4449 52.493 74.9878 53.5949 74.1751 54.4076C73.3624 55.2203 72.2606 55.6774 71.1113 55.6787C70.7185 55.6784 70.3419 55.5222 70.0642 55.2445C69.7865 54.9668 69.6303 54.5902 69.63 54.1975V39.4125C69.63 38.5962 70.2938 37.9312 71.1113 37.9312C72.2606 37.9326 73.3624 38.3897 74.1751 39.2024C74.9878 40.0151 75.4449 41.1169 75.4463 42.2662V51.3437Z" fill="url(#paint0_linear_20_92)"/>
<path d="M52.1413 51.99C54.2477 51.9877 56.2672 51.1499 57.7567 49.6604C59.2461 48.1709 60.0839 46.1514 60.0863 44.045V27.8563C60.0863 25.7388 59.2588 23.7438 57.7563 22.2413C56.2538 20.7388 54.26 19.9113 52.1413 19.9113H27.8588C25.7523 19.9136 23.7328 20.7514 22.2434 22.2408C20.7539 23.7303 19.9161 25.7498 19.9138 27.8563V44.045C19.9161 46.1514 20.7539 48.1709 22.2434 49.6604C23.7328 51.1499 25.7523 51.9877 27.8588 51.99H28.0075V56.185C28.005 56.6972 28.1039 57.2049 28.2983 57.6788C28.4927 58.1527 28.7789 58.5835 29.1404 58.9465C29.502 59.3094 29.9316 59.5972 30.4048 59.7935C30.878 59.9897 31.3853 60.0905 31.8975 60.09C32.4094 60.091 32.9163 59.989 33.3879 59.7899C33.8595 59.5908 34.2862 59.2988 34.6425 58.9313L41.6213 51.99H52.1413ZM39.5275 48.785L31.975 56.2963C31.9413 56.3313 31.9163 56.3575 31.845 56.3263C31.7588 56.2913 31.7588 56.235 31.7588 56.185V50.115C31.7588 49.6177 31.5612 49.1408 31.2096 48.7892C30.858 48.4375 30.381 48.24 29.8838 48.24H27.86C26.7478 48.2387 25.6816 47.7963 24.8952 47.0099C24.1087 46.2234 23.6663 45.1572 23.665 44.045V27.8563C23.6663 26.7441 24.1087 25.6778 24.8952 24.8914C25.6816 24.105 26.7478 23.6626 27.86 23.6613H52.1425C53.26 23.6613 54.3113 24.0988 55.1063 24.8925C55.9013 25.6875 56.3375 26.74 56.3375 27.8563V44.045C56.3362 45.1572 55.8938 46.2234 55.1074 47.0099C54.3209 47.7963 53.2547 48.2387 52.1425 48.24H40.85C40.3538 48.24 39.8788 48.4363 39.5275 48.785Z" fill="url(#paint1_linear_20_92)"/>
<path d="M30.8912 33.4838C29.3662 33.4838 28.125 34.7263 28.125 36.25C28.125 37.7738 29.3675 39.0163 30.8912 39.0163C32.4175 39.0163 33.66 37.7738 33.66 36.25C33.66 34.7263 32.4187 33.4838 30.8912 33.4838ZM39.9988 33.4838C38.4738 33.4838 37.2325 34.7263 37.2325 36.25C37.2325 37.7738 38.475 39.0163 39.9988 39.0163C41.5263 39.0163 42.7675 37.7738 42.7675 36.25C42.7675 34.7263 41.5263 33.4838 39.9988 33.4838ZM49.1063 33.4838C47.5812 33.4838 46.34 34.7263 46.34 36.25C46.34 37.7738 47.5825 39.0163 49.1063 39.0163C50.6325 39.0163 51.875 37.7738 51.875 36.25C51.875 34.7263 50.6325 33.4838 49.1063 33.4838Z" fill="url(#paint2_linear_20_92)"/>
<defs>
<linearGradient id="paint0_linear_20_92" x1="40" y1="1.70123" x2="40" y2="78.2975" gradientUnits="userSpaceOnUse">
<stop stop-color="#3DB54F"/>
<stop offset="1" stop-color="#95D854"/>
</linearGradient>
<linearGradient id="paint1_linear_20_92" x1="40" y1="19.9113" x2="40" y2="60.09" gradientUnits="userSpaceOnUse">
<stop stop-color="#3DB54F"/>
<stop offset="1" stop-color="#95D854"/>
</linearGradient>
<linearGradient id="paint2_linear_20_92" x1="40" y1="33.4838" x2="40" y2="39.0163" gradientUnits="userSpaceOnUse">
<stop stop-color="#3DB54F"/>
<stop offset="1" stop-color="#95D854"/>
</linearGradient>
</defs>
</svg>
