<svg width="80" height="80" viewBox="0 0 80 80" fill="none" xmlns="http://www.w3.org/2000/svg">
<path d="M73.5187 42.05C70.8875 40.8 67.6312 39.3 65.5438 38.3C64.0738 37.6031 62.3943 37.4892 60.8438 37.9812C58.8437 38.6062 53.0375 40.625 51.6312 40.5688C50.9625 40.5347 50.3206 40.2946 49.7937 39.8812C49.0625 39.35 44.65 36.3 42.6562 34.9437C44.0375 34.3937 46.4062 33.4187 48.4875 32.5687C49.9205 31.9886 51.0643 30.8629 51.6674 29.4394C52.2704 28.0159 52.2833 26.4111 51.7031 24.9781C51.123 23.5451 49.9973 22.4013 48.5738 21.7982C47.1503 21.1952 45.5455 21.1823 44.1125 21.7625C40.8125 23.0687 37.0312 24.5875 33.9125 25.9187C34.4432 24.6894 34.7155 23.364 34.7125 22.025C34.7204 19.612 33.8467 17.2791 32.2557 15.4649C30.6646 13.6507 28.4657 12.4801 26.0723 12.173C23.6788 11.866 21.2557 12.4437 19.2582 13.7975C17.2607 15.1513 15.8264 17.1881 15.225 19.525C14.9437 18.9 14.6625 18.275 14.3687 17.65C13.7054 16.2043 12.5014 15.0764 11.0155 14.5087C9.52954 13.9409 7.88022 13.9787 6.42182 14.6138C4.96342 15.2488 3.81228 16.4306 3.21571 17.9052C2.61913 19.3798 2.62471 21.0295 3.23125 22.5C5.96875 29.1687 11.0625 41.0187 14.375 45.5062C19.025 51.8062 26.25 61.1313 29.1562 64.4625C32.55 68.325 36.9625 69.0875 41.9625 67.5125C46.9625 65.9375 63.8375 60.7562 68.6125 59.0812C70.15 58.5438 71.1125 57 71.1125 54.9625C71.1207 54.4353 71.0683 53.9089 70.9562 53.3938C72.3098 53.391 73.6219 52.9269 74.6761 52.078C75.7303 51.2291 76.4636 50.0461 76.7549 48.7243C77.0462 47.4025 76.8781 46.0209 76.2784 44.8075C75.6787 43.5941 74.6832 42.6214 73.4562 42.05H73.5187ZM24.8187 14.6187C26.2848 14.6187 27.7179 15.0535 28.9369 15.868C30.1559 16.6825 31.106 17.8402 31.667 19.1946C32.228 20.5491 32.3748 22.0395 32.0888 23.4774C31.8028 24.9152 31.0968 26.236 30.0602 27.2727C29.0235 28.3093 27.7027 29.0153 26.2649 29.3013C24.827 29.5873 23.3366 29.4405 21.9821 28.8795C20.6276 28.3185 19.47 27.3684 18.6555 26.1494C17.841 24.9304 17.4062 23.4973 17.4062 22.0312C17.4062 20.0653 18.1872 18.1799 19.5773 16.7898C20.9674 15.3997 22.8528 14.6187 24.8187 14.6187ZM24.5125 34.7812C23.3057 33.7203 22.2123 32.5368 21.25 31.25C22.4967 31.7356 23.8329 31.9487 25.1687 31.875C24.7318 32.7812 24.5073 33.7752 24.5125 34.7812ZM67.7875 56.725C63.0312 58.3938 45.9125 63.6437 41.2125 65.1312C36.8375 66.5 33.625 65.7563 31.0375 62.8125C28.1562 59.5375 21.0375 50.3125 16.3875 44.0187C13.2625 39.75 8.2625 28.1062 5.54375 21.5187C5.17811 20.6504 5.17007 19.6728 5.52137 18.7985C5.87268 17.9242 6.55493 17.224 7.41977 16.85C8.28461 16.4761 9.2621 16.4587 10.1397 16.8016C11.0173 17.1445 11.724 17.82 12.1062 18.6812C13.9812 22.7937 16.4812 28.1562 17.7312 30.375C20.125 34.5062 23.0687 37.0938 27.1062 40.25C32.1062 44.1688 41.0062 50.6688 42.9875 52.1688C47.9875 55.9188 52.55 54.175 56.2313 52.7938C57.625 52.2625 57.6625 52.2687 59.3062 51.5438C61.675 50.4937 63.3875 49.7375 66.1812 50.8125C67.7875 51.4375 68.625 53.3875 68.6 54.9062C68.6125 55.6562 68.3812 56.5125 67.7875 56.725ZM74.1187 48.925C73.7503 49.7055 73.1007 50.3181 72.2999 50.6402C71.4992 50.9624 70.6063 50.9703 69.8 50.6625C69.1399 49.6887 68.2009 48.9371 67.1062 48.5062C63.3563 47.05 60.9188 48.1312 58.3563 49.275C56.7062 50 56.7 50 55.375 50.475C51.95 51.7812 48.4062 53.1312 44.5312 50.2062C42.1937 48.4437 33.9062 42.4 28.7125 38.3312C28.1445 37.8922 27.6922 37.3211 27.3948 36.6676C27.0975 36.0141 26.9641 35.298 27.0062 34.5812C27.0833 33.774 27.3572 32.9981 27.804 32.3214C28.2507 31.6447 28.8567 31.088 29.5688 30.7C31.25 29.6937 36.7312 27.3437 45.0437 24.075C45.4488 23.9108 45.8822 23.8281 46.3192 23.8314C46.7563 23.8348 47.1884 23.9242 47.5908 24.0945C47.9933 24.2648 48.3583 24.5128 48.665 24.8242C48.9716 25.1356 49.214 25.5043 49.3781 25.9094C49.5423 26.3144 49.625 26.7478 49.6217 27.1849C49.6183 27.6219 49.529 28.054 49.3586 28.4565C49.1883 28.859 48.9403 29.2239 48.6289 29.5306C48.3175 29.8373 47.9488 30.0796 47.5437 30.2437C44.5812 31.4937 41.1562 32.85 40.725 33.0125C40.3921 33.1274 40.0983 33.3337 39.8772 33.6079C39.6562 33.882 39.5168 34.2128 39.475 34.5625C39.4368 34.9304 39.5034 35.3017 39.667 35.6334C39.8307 35.9652 40.0848 36.2439 40.4 36.4375C41.025 36.8437 47.4937 41.3 48.3438 41.9125C49.258 42.6066 50.3599 43.0095 51.5063 43.0688C53.4813 43.1688 58.2875 41.4125 61.6062 40.375C62.556 40.0679 63.5874 40.1372 64.4875 40.5688C66.575 41.5563 69.8375 43.0688 72.475 44.3188C72.8867 44.5118 73.2561 44.7844 73.5619 45.1209C73.8676 45.4574 74.1038 45.8512 74.2566 46.2794C74.4094 46.7076 74.4759 47.1619 74.4522 47.616C74.4286 48.0701 74.3152 48.515 74.1187 48.925Z" fill="url(#paint0_linear_20_84)"/>
<defs>
<linearGradient id="paint0_linear_20_84" x1="39.8333" y1="12.0925" x2="39.8333" y2="68.2814" gradientUnits="userSpaceOnUse">
<stop stop-color="#3DB54F"/>
<stop offset="1" stop-color="#95D854"/>
</linearGradient>
</defs>
</svg>
