<svg width="80" height="80" viewBox="0 0 80 80" fill="none" xmlns="http://www.w3.org/2000/svg">
<g clip-path="url(#clip0_20_87)">
<path d="M66.4755 15.8514L78.4345 30.6906L74.9633 36.7027L60.7597 25.6456M69.6395 1.5625C70.3502 2.91776 70.7065 4.43073 70.6754 5.96069C70.6443 7.49064 70.2267 8.98788 69.4616 10.3131L59.7141 27.1962C56.7075 32.4038 52.4912 36.8108 47.4217 40.0447C47.6876 34.0374 49.3961 28.1824 52.4027 22.9748L62.1502 6.09172C62.9153 4.76652 64.0032 3.65635 65.3127 2.86447C66.6221 2.07258 68.1105 1.62471 69.6395 1.5625Z" stroke="url(#paint0_linear_20_87)" stroke-width="3" stroke-miterlimit="10" stroke-linecap="round" stroke-linejoin="round"/>
<path d="M69.6397 1.5625C68.1107 1.62468 66.6222 2.07256 65.3128 2.86448C64.0033 3.65639 62.9155 4.76661 62.1503 6.09187L52.4028 22.975C49.3963 28.1826 47.6878 34.0375 47.4219 40.0448C52.4914 36.811 56.7076 32.4039 59.7142 27.1964L69.4617 10.3133C70.2269 8.98803 70.6444 7.4908 70.6755 5.96085C70.7066 4.43089 70.3503 2.91792 69.6397 1.56266M58.8239 11.4436L40.0166 8.51L36.5453 14.522L53.2186 21.2925" stroke="url(#paint1_linear_20_87)" stroke-width="3" stroke-miterlimit="10" stroke-linecap="round" stroke-linejoin="round"/>
<path d="M49.0875 38.9181L55.3994 44.6506L58.4825 39.3103L54.4684 34.4394M47.5647 38.0389L39.4442 35.4391L42.5275 30.0988L48.6939 31.1297M14.2455 37.9386C12.4967 38.1601 10.8036 38.7014 9.25062 39.5355M3.30812 45.4914C2.42903 47.0193 1.83832 48.6958 1.56547 50.4373M3.15297 58.8913C3.96422 60.4563 5.0564 61.8587 6.375 63.0286M13.5259 66.7673C15.2583 67.0935 17.0358 67.0983 18.7698 66.7816M33.805 60.6848C35.2891 59.7336 36.5856 58.5176 37.63 57.0975M42.1402 51.0573C43.2845 49.7164 44.1724 48.1765 44.7595 46.5144M26.6597 42.5734C25.4473 41.2938 24.0099 40.248 22.4192 39.4883M30.3466 55.0411C30.6622 53.3068 30.6561 51.5293 30.3288 49.7972M25.7842 68.0541C26.691 66.5424 27.3121 64.8769 27.6166 63.1406M15.3055 76.0422C16.9567 75.4251 18.4803 74.5095 19.8003 73.3413M3.13281 78.1956C4.86592 78.5175 6.64344 78.518 8.37672 78.197" stroke="url(#paint2_linear_20_87)" stroke-width="3" stroke-miterlimit="10" stroke-linecap="round" stroke-linejoin="round"/>
</g>
<defs>
<linearGradient id="paint0_linear_20_87" x1="62.9281" y1="1.5625" x2="62.9281" y2="40.0447" gradientUnits="userSpaceOnUse">
<stop stop-color="#3DB54F"/>
<stop offset="1" stop-color="#95D854"/>
</linearGradient>
<linearGradient id="paint1_linear_20_87" x1="53.6114" y1="1.5625" x2="53.6114" y2="40.0448" gradientUnits="userSpaceOnUse">
<stop stop-color="#3DB54F"/>
<stop offset="1" stop-color="#95D854"/>
</linearGradient>
<linearGradient id="paint2_linear_20_87" x1="30.024" y1="30.0988" x2="30.024" y2="78.4374" gradientUnits="userSpaceOnUse">
<stop stop-color="#3DB54F"/>
<stop offset="1" stop-color="#95D854"/>
</linearGradient>
<clipPath id="clip0_20_87">
<rect width="80" height="80" fill="white"/>
</clipPath>
</defs>
</svg>
