<svg width="1600" height="465" viewBox="0 0 1600 465" fill="none" xmlns="http://www.w3.org/2000/svg">
<g clip-path="url(#clip0_56_82)">
<path d="M1600 18.3334C1514.17 -6.2499 1486.44 178.659 1418.33 226.666C1349.17 275.416 1224.17 198.749 1110.42 213.749C953.917 234.387 903.333 472.916 655.417 443.333C503.684 425.227 492.917 331.177 281.667 262.083C170.833 225.833 40.4166 250.833 0.000793457 294.167" stroke="#3DB54F"/>
<g filter="url(#filter0_d_56_82)">
<path d="M153.006 266.152L156.551 265.462C159.743 264.836 162.739 263.424 165.165 261.275C169.589 257.334 170.912 252.25 170.26 245.101L169.523 239.475C168.316 232.418 165.728 227.827 160.44 225.176C157.543 223.724 154.285 223.131 151.038 223.347L147.436 223.592C145.108 223.746 142.787 224.087 140.511 224.631L139.997 224.755L81.8733 232.362C78.5054 232.955 76.8176 233.799 74.1669 235.241C69.8113 237.832 68.2874 242.243 69.6923 253.411L70.2099 257.366C71.7264 268.518 74.3529 272.386 79.21 273.771C82.1427 274.483 83.9884 274.846 87.3975 274.57L145.503 266.965L146.031 266.952C148.366 266.854 150.697 266.587 153.006 266.152ZM142.353 263.297L129.374 262.484C128.497 262.429 127.621 262.392 126.748 262.375C127.661 251.131 127.04 244.506 123.005 233.778C123.844 233.536 124.681 233.276 125.515 232.996L137.848 228.871C140.513 227.974 143.441 229.082 144.802 231.53C146.608 234.768 147.721 238.646 148.563 243.918L148.83 245.961C149.374 251.272 149.28 255.326 148.366 258.903C147.703 261.652 145.16 263.477 142.353 263.297Z" fill="#F2F2F2"/>
<path d="M165.803 232.445L145.657 233.287L145.686 233.511L165.812 233.388C165.756 232.962 165.696 232.648 165.803 232.445Z" fill="#E7E7E7"/>
<path d="M168.473 252.853L148.79 257.223L148.761 257.001L168.243 251.958C168.297 252.366 168.319 252.684 168.473 252.853Z" fill="#E7E7E7"/>
<path d="M90.1184 268.888C87.885 269.18 86.0475 269.175 84.5234 268.807C84.6675 268.752 84.8067 268.657 84.9434 268.545C84.395 268.409 83.8825 268.25 83.3875 268.087C81.8204 267.537 80.5684 266.36 79.8431 264.868C78.722 262.523 78.1228 260.258 77.4839 257.113C77.3235 256.322 77.2029 255.544 77.0984 254.746L77.0303 254.226C76.9282 253.446 76.8447 252.663 76.801 251.895C76.6062 248.672 76.6026 246.33 77.0797 243.756C77.378 242.13 78.306 240.687 79.6766 239.732C80.1103 239.431 80.5675 239.163 81.078 238.869C80.9566 238.81 80.8377 238.768 80.7001 238.73C82.0579 237.967 83.7917 237.476 85.9692 237.191C86.9184 237.066 87.8934 236.995 88.8734 236.962L92.9809 268.343C92.0117 268.602 91.0675 268.763 90.1184 268.888Z" fill="#4B545A"/>
<path d="M90.1184 268.888C87.885 269.18 86.0475 269.175 84.5234 268.807C84.6675 268.752 84.8067 268.657 84.9434 268.545C84.395 268.409 83.8825 268.25 83.3875 268.087C81.8204 267.537 80.5684 266.36 79.8431 264.868C78.722 262.523 78.1228 260.258 77.4839 257.113C77.3235 256.322 77.2029 255.544 77.0984 254.746L77.0303 254.226C76.9282 253.446 76.8447 252.663 76.801 251.895C76.6062 248.672 76.6026 246.33 77.0797 243.756C77.378 242.13 78.306 240.687 79.6766 239.732C80.1103 239.431 80.5675 239.163 81.078 238.869C80.9566 238.81 80.8377 238.768 80.7001 238.73C82.0579 237.967 83.7917 237.476 85.9692 237.191C86.9184 237.066 87.8934 236.995 88.8734 236.962L92.9809 268.343C92.0117 268.602 91.0675 268.763 90.1184 268.888Z" fill="#4388FC" fill-opacity="0.1"/>
<path d="M90.1184 268.888C87.885 269.18 86.0475 269.175 84.5234 268.807C84.6675 268.752 84.8067 268.657 84.9434 268.545C84.395 268.409 83.8825 268.25 83.3875 268.087C81.8204 267.537 80.5684 266.36 79.8431 264.868C78.722 262.523 78.1228 260.258 77.4839 257.113C77.3235 256.322 77.2029 255.544 77.0984 254.746L77.0303 254.226C76.9282 253.446 76.8447 252.663 76.801 251.895C76.6062 248.672 76.6026 246.33 77.0797 243.756C77.378 242.13 78.306 240.687 79.6766 239.732C80.1103 239.431 80.5675 239.163 81.078 238.869C80.9566 238.81 80.8377 238.768 80.7001 238.73C82.0579 237.967 83.7917 237.476 85.9692 237.191C86.9184 237.066 87.8934 236.995 88.8734 236.962L92.9809 268.343C92.0117 268.602 91.0675 268.763 90.1184 268.888Z" fill="url(#paint0_radial_56_82)" fill-opacity="0.77"/>
<path d="M93.8034 236.882C92.0867 237.07 90.3134 237.264 88.3542 237.482C88.2059 237.502 88.0517 237.485 87.9117 237.427C87.275 237.19 87.0117 236.771 87.05 236.048C87.2325 234.986 88.1134 234.342 89.7842 234.085L136.423 226.961C136.46 226.956 136.498 226.951 136.535 226.946C136.518 226.967 136.484 226.99 136.449 227.013L135.478 227.688C135.268 227.829 135.039 227.954 134.786 228.043L126.945 230.618C121.391 232.441 116.423 233.677 111.705 234.37C104.516 235.707 99.5534 236.262 93.8034 236.882Z" fill="#4B545A"/>
<path d="M93.8034 236.882C92.0867 237.07 90.3134 237.264 88.3542 237.482C88.2059 237.502 88.0517 237.485 87.9117 237.427C87.275 237.19 87.0117 236.771 87.05 236.048C87.2325 234.985 88.1134 234.341 89.7842 234.085L136.423 226.961C136.46 226.956 136.498 226.951 136.535 226.946C136.518 226.967 136.484 226.99 136.449 227.013L135.478 227.688C135.268 227.829 135.039 227.954 134.786 228.043L126.945 230.618C121.391 232.441 116.423 233.677 111.705 234.37C104.516 235.707 99.5534 236.262 93.8034 236.882Z" fill="#4388FC" fill-opacity="0.1"/>
<path d="M93.8034 236.882C92.0867 237.07 90.3134 237.264 88.3542 237.482C88.2059 237.502 88.0517 237.485 87.9117 237.427C87.275 237.19 87.0117 236.771 87.05 236.048C87.2325 234.985 88.1134 234.341 89.7842 234.085L136.423 226.961C136.46 226.956 136.498 226.951 136.535 226.946C136.518 226.967 136.484 226.99 136.449 227.013L135.478 227.688C135.268 227.829 135.039 227.954 134.786 228.043L126.945 230.618C121.391 232.441 116.423 233.677 111.705 234.37C104.516 235.707 99.5534 236.262 93.8034 236.882Z" fill="url(#paint1_radial_56_82)" fill-opacity="0.77"/>
<path d="M108.214 231.276C107.702 232.571 107.577 233.493 107.598 235.097L110.43 234.612C111.008 233.101 111.617 231.964 112.703 230.575L108.214 231.276Z" fill="#4B545A"/>
<path d="M130.902 229.326L131.098 227.789L136.425 226.979C136.462 226.974 136.499 226.969 136.537 226.964C136.52 226.985 136.486 227.009 136.451 227.032L135.479 227.707C135.27 227.847 135.04 227.972 134.788 228.062L130.902 229.326Z" fill="#4B545A"/>
<path d="M97.7608 267.113C96.0533 267.374 94.29 267.643 92.3408 267.936C92.1917 267.956 92.0483 268.012 91.9275 268.103C91.3733 268.496 91.2267 268.969 91.4492 269.658C91.8992 270.638 92.9167 271.033 94.5967 270.851L141.498 265.732C141.536 265.727 141.572 265.722 141.61 265.718C141.589 265.701 141.549 265.688 141.51 265.674L140.397 265.272C140.159 265.19 139.905 265.129 139.637 265.107L131.358 264.623C125.522 264.291 120.402 264.376 115.666 264.921C108.412 265.473 103.476 266.233 97.7608 267.113Z" fill="#4B545A"/>
<path d="M97.7608 267.113C96.0533 267.374 94.29 267.643 92.3408 267.936C92.1917 267.956 92.0483 268.011 91.9275 268.103C91.3733 268.496 91.2267 268.969 91.4492 269.658C91.8992 270.638 92.9167 271.033 94.5967 270.851L141.498 265.732C141.536 265.727 141.572 265.722 141.61 265.718C141.589 265.701 141.549 265.688 141.51 265.674L140.397 265.272C140.159 265.19 139.905 265.129 139.637 265.107L131.358 264.623C125.522 264.291 120.402 264.376 115.666 264.921C108.412 265.473 103.476 266.233 97.7608 267.113Z" fill="#4388FC" fill-opacity="0.1"/>
<path d="M97.7608 267.113C96.0533 267.374 94.29 267.643 92.3408 267.936C92.1917 267.956 92.0483 268.011 91.9275 268.103C91.3733 268.496 91.2267 268.969 91.4492 269.658C91.8992 270.638 92.9167 271.033 94.5967 270.851L141.498 265.732C141.536 265.727 141.572 265.722 141.61 265.718C141.589 265.701 141.549 265.688 141.51 265.674L140.397 265.272C140.159 265.19 139.905 265.129 139.637 265.107L131.358 264.623C125.522 264.291 120.402 264.376 115.666 264.921C108.412 265.473 103.476 266.233 97.7608 267.113Z" fill="url(#paint2_radial_56_82)" fill-opacity="0.77"/>
<path d="M113.109 268.825C112.282 267.706 111.923 266.846 111.53 265.292L114.393 265.031C115.34 266.342 116.221 267.284 117.628 268.347L113.109 268.825Z" fill="#4B545A"/>
<path d="M135.536 264.87L136.122 266.304L141.478 265.717C141.515 265.712 141.552 265.707 141.589 265.702C141.568 265.686 141.528 265.672 141.489 265.658L140.376 265.256C140.138 265.174 139.884 265.112 139.617 265.091L135.536 264.87Z" fill="#4B545A"/>
<path d="M133.937 227.928C133.505 228.097 133.242 228.113 132.802 228.076L132.6 226.535L133.735 226.386L133.937 227.928Z" fill="#594F4F"/>
<path d="M133.453 226.688L131.887 226.874C131.719 226.896 131.556 226.804 131.478 226.644L129.613 222.809C129.559 222.683 129.614 222.526 129.739 222.472C129.937 222.389 130.153 222.304 130.43 222.248C130.613 222.206 130.802 222.2 130.951 222.181C131.347 222.167 131.738 222.267 132.068 222.468C132.358 222.657 132.654 222.902 132.915 223.302C133.246 223.807 133.49 224.512 133.603 225.233C133.665 225.565 133.703 225.994 133.728 226.331C133.753 226.517 133.62 226.666 133.453 226.688Z" fill="#594F4F"/>
<path d="M138.843 265.419C138.382 265.366 138.123 265.418 137.708 265.567L137.909 267.108L139.045 266.96L138.843 265.419Z" fill="#594F4F"/>
<path d="M138.677 266.744L137.117 266.967C136.949 266.989 136.815 267.12 136.781 267.294L135.966 271.481C135.946 271.615 136.039 271.754 136.174 271.774C136.387 271.803 136.618 271.83 136.899 271.812C137.088 271.806 137.271 271.763 137.42 271.743C137.806 271.655 138.158 271.458 138.425 271.178C138.657 270.921 138.88 270.608 139.029 270.154C139.219 269.582 139.273 268.838 139.198 268.111C139.172 267.774 139.097 267.35 139.035 267.018C139.011 266.833 138.863 266.719 138.677 266.744Z" fill="#594F4F"/>
<path d="M164.949 231.14C162.036 227.537 158.936 225.695 154.321 225.147L156.554 224.854C157.876 224.682 159.2 224.962 160.317 225.684C162.471 227.102 163.95 228.57 164.949 231.14Z" fill="url(#paint3_linear_56_82)"/>
<path d="M164.949 231.14C162.036 227.537 158.936 225.695 154.321 225.147L156.554 224.854C157.876 224.682 159.2 224.962 160.317 225.684C162.471 227.102 163.95 228.57 164.949 231.14Z" fill="url(#paint4_linear_56_82)"/>
<path d="M154.343 225.163L156.558 224.873C157.879 224.701 159.203 224.981 160.32 225.703C162.472 227.103 163.951 228.571 164.95 231.141C162.037 227.538 158.956 225.693 154.343 225.163Z" fill="#D5E3F0"/>
<path d="M167.964 254.166C166.076 258.398 163.555 260.976 159.236 262.693L161.47 262.401C162.791 262.227 163.998 261.617 164.892 260.631C166.611 258.725 167.66 256.907 167.964 254.166Z" fill="url(#paint5_linear_56_82)"/>
<path d="M167.964 254.166C166.076 258.398 163.555 260.976 159.236 262.693L161.47 262.401C162.791 262.227 163.998 261.617 164.892 260.631C166.611 258.725 167.66 256.907 167.964 254.166Z" fill="url(#paint6_linear_56_82)"/>
<path d="M159.254 262.691L161.469 262.401C162.79 262.228 163.998 261.617 164.891 260.631C166.628 258.722 167.678 256.904 167.982 254.163C166.075 258.398 163.573 260.973 159.254 262.691Z" fill="#D5E3F0"/>
<path d="M69.3411 243.22C69.8608 239.091 71.4756 236.821 74.1441 235.225C74.9217 234.803 75.6297 234.427 76.3054 234.093L76.2423 234.478C76.0143 235.773 75.2336 236.896 74.1105 237.572C72.2843 238.661 71.561 239.643 70.5888 242.339C70.3939 242.874 69.8905 243.223 69.3411 243.22Z" fill="#D8394C"/>
<path d="M72.4895 267.267C74.0543 271.123 76.1989 272.901 79.1883 273.756C80.0485 273.964 80.8294 274.145 81.5683 274.294L81.408 273.938C80.8543 272.744 79.8111 271.861 78.5519 271.498C76.5069 270.915 75.5552 270.152 73.9218 267.797C73.5957 267.33 73.0195 267.122 72.4895 267.267Z" fill="#D8394C"/>
<path d="M144.291 246.574C144.852 252.016 144.706 255.963 143.842 259.344C143.466 260.81 142.49 262.033 141.163 262.736L129.403 261.989C128.698 261.949 127.973 261.913 127.271 261.891C127.733 255.881 127.695 251.542 127.163 247.475C126.623 243.352 125.53 239.19 123.632 234.093C124.306 233.892 124.999 233.687 125.668 233.449L136.841 229.72C138.305 230.057 139.563 230.988 140.303 232.308C142.01 235.371 143.146 239.132 144.023 244.532L144.291 246.574ZM144.774 246.511L144.508 244.468C143.666 239.196 142.532 235.302 140.747 232.08C139.905 230.566 138.447 229.547 136.833 229.23L125.517 233.015C124.683 233.294 123.846 233.555 123.007 233.797C124.979 239.035 126.123 243.286 126.684 247.576C127.275 252.087 127.207 256.63 126.752 262.412C127.625 262.43 128.501 262.467 129.378 262.522L141.27 263.269C142.744 262.528 143.894 261.188 144.318 259.508C145.224 255.877 145.318 251.822 144.774 246.511Z" fill="black"/>
<path d="M141.265 263.232L129.373 262.484C128.496 262.429 127.62 262.392 126.747 262.375C127.66 251.131 127.039 244.507 123.004 233.778C123.843 233.537 124.68 233.276 125.514 232.997L136.813 229.214C138.428 229.55 139.883 230.549 140.725 232.063C142.531 235.302 143.644 239.18 144.486 244.452L144.753 246.495C145.298 251.807 145.203 255.861 144.289 259.437C143.889 261.151 142.739 262.492 141.265 263.232Z" fill="#4B545A"/>
<path d="M141.265 263.233L129.373 262.484C128.496 262.429 127.62 262.393 126.747 262.375C127.66 251.131 127.039 244.508 123.004 233.778C123.843 233.537 124.68 233.276 125.514 232.997L136.813 229.213C138.428 229.55 139.883 230.549 140.725 232.063C142.531 235.303 143.644 239.18 144.486 244.453L144.753 246.495C145.298 251.807 145.203 255.861 144.289 259.437C143.889 261.151 142.739 262.492 141.265 263.233Z" fill="#4388FC" fill-opacity="0.1"/>
<path d="M141.265 263.233L129.373 262.484C128.496 262.429 127.62 262.393 126.747 262.375C127.66 251.131 127.039 244.508 123.004 233.778C123.843 233.537 124.68 233.276 125.514 232.997L136.813 229.213C138.428 229.55 139.883 230.549 140.725 232.063C142.531 235.303 143.644 239.18 144.486 244.453L144.753 246.495C145.298 251.807 145.203 255.861 144.289 259.437C143.889 261.151 142.739 262.492 141.265 263.233Z" fill="url(#paint7_radial_56_82)" fill-opacity="0.77"/>
<path d="M142.353 263.297C145.16 263.478 147.704 261.653 148.39 258.938C149.301 255.343 149.379 251.31 148.854 245.996L148.587 243.953C147.745 238.681 146.611 234.787 144.826 231.565C143.464 229.117 140.537 228.009 137.871 228.906L136.837 229.248C138.453 229.585 139.908 230.584 140.75 232.098C142.556 235.337 143.669 239.214 144.511 244.487L144.778 246.53C145.322 251.842 145.228 255.896 144.314 259.472C143.89 261.151 142.743 262.51 141.266 263.232L142.353 263.297Z" fill="#4B545A"/>
<path d="M168.768 252.644C168.75 252.647 168.703 252.578 168.676 252.373L166.124 232.876C166.098 232.672 166.143 232.59 166.143 232.59C166.162 232.588 166.278 232.61 166.457 232.813L166.59 232.966C167.408 233.86 168.005 234.518 168.647 235.662C168.991 236.844 169.27 238.111 169.506 239.478L170.243 245.104C170.367 246.486 170.423 247.782 170.394 249.013C170.394 249.013 170.394 249.013 170.397 249.032C170.071 250.302 169.663 251.092 169.103 252.166L169.013 252.348C168.893 252.59 168.787 252.642 168.768 252.644Z" fill="#4B545A"/>
<path d="M91.2217 237.107L95.2075 267.561C95.2075 267.561 93.05 268.093 90.5142 267.136C84.9383 265.033 82.1307 241.414 86.7833 238.632C89.11 237.242 91.2217 237.107 91.2217 237.107Z" fill="#F2F2F2"/>
</g>
<path d="M1600 8.33219C1466.67 -52.0841 1382.92 313.333 1220.42 285.416C949.925 238.945 920.417 464.166 743.333 464.166C605.965 464.166 552.917 231.249 336.667 294.583C124.68 356.667 45.8333 94.1659 0.833313 8.33219" stroke="#DFE0E2" stroke-width="2" stroke-dasharray="10 10"/>
</g>
<defs>
<filter id="filter0_d_56_82" x="49.1855" y="206.179" width="141.231" height="92.4832" filterUnits="userSpaceOnUse" color-interpolation-filters="sRGB">
<feFlood flood-opacity="0" result="BackgroundImageFix"/>
<feColorMatrix in="SourceAlpha" type="matrix" values="0 0 0 0 0 0 0 0 0 0 0 0 0 0 0 0 0 0 127 0" result="hardAlpha"/>
<feOffset dy="4"/>
<feGaussianBlur stdDeviation="10"/>
<feColorMatrix type="matrix" values="0 0 0 0 0 0 0 0 0 0 0 0 0 0 0 0 0 0 0.25 0"/>
<feBlend mode="normal" in2="BackgroundImageFix" result="effect1_dropShadow_56_82"/>
<feBlend mode="normal" in="SourceGraphic" in2="effect1_dropShadow_56_82" result="shape"/>
</filter>
<radialGradient id="paint0_radial_56_82" cx="0" cy="0" r="1" gradientUnits="userSpaceOnUse" gradientTransform="translate(92.0209 253.34) rotate(172.543) scale(16.0485 52.9064)">
<stop stop-color="white" stop-opacity="0.8"/>
<stop offset="1" stop-color="white" stop-opacity="0.01"/>
</radialGradient>
<radialGradient id="paint1_radial_56_82" cx="0" cy="0" r="1" gradientUnits="userSpaceOnUse" gradientTransform="translate(83.0652 236.206) rotate(172.576) scale(54.9628 6.96951)">
<stop stop-color="white" stop-opacity="0.8"/>
<stop offset="1" stop-color="white" stop-opacity="0.01"/>
</radialGradient>
<radialGradient id="paint2_radial_56_82" cx="0" cy="0" r="1" gradientUnits="userSpaceOnUse" gradientTransform="translate(87.5658 270.59) rotate(172.576) scale(54.9628 6.98304)">
<stop stop-color="white" stop-opacity="0.8"/>
<stop offset="1" stop-color="white" stop-opacity="0.01"/>
</radialGradient>
<linearGradient id="paint3_linear_56_82" x1="159.172" y1="224.522" x2="160.122" y2="231.781" gradientUnits="userSpaceOnUse">
<stop offset="0.1548" stop-color="#A1A1A1"/>
<stop offset="0.9205" stop-color="white"/>
</linearGradient>
<linearGradient id="paint4_linear_56_82" x1="159.172" y1="224.522" x2="160.122" y2="231.781" gradientUnits="userSpaceOnUse">
<stop stop-color="#333333"/>
<stop offset="0.1883"/>
<stop offset="0.3849" stop-color="#333333"/>
<stop offset="0.5983"/>
<stop offset="0.8033" stop-color="#333333"/>
<stop offset="1"/>
</linearGradient>
<linearGradient id="paint5_linear_56_82" x1="164.086" y1="262.06" x2="163.135" y2="254.802" gradientUnits="userSpaceOnUse">
<stop offset="0.1548" stop-color="#A1A1A1"/>
<stop offset="0.9205" stop-color="white"/>
</linearGradient>
<linearGradient id="paint6_linear_56_82" x1="164.086" y1="262.06" x2="163.135" y2="254.802" gradientUnits="userSpaceOnUse">
<stop stop-color="#333333"/>
<stop offset="0.1883"/>
<stop offset="0.3849" stop-color="#333333"/>
<stop offset="0.5983"/>
<stop offset="0.8033" stop-color="#333333"/>
<stop offset="1"/>
</linearGradient>
<radialGradient id="paint7_radial_56_82" cx="0" cy="0" r="1" gradientUnits="userSpaceOnUse" gradientTransform="translate(123.363 248.525) rotate(173.196) scale(21.7689 54.0862)">
<stop stop-color="white" stop-opacity="0.8"/>
<stop offset="1" stop-color="white" stop-opacity="0.01"/>
</radialGradient>
<clipPath id="clip0_56_82">
<rect width="1600" height="465" fill="white"/>
</clipPath>
</defs>
</svg>
