<svg width="40" height="40" viewBox="0 0 40 40" fill="none" xmlns="http://www.w3.org/2000/svg">
<path d="M29.53 5.0817C27.801 3.66597 25.7793 2.65161 23.6108 2.11179C21.4423 1.57197 19.181 1.52014 16.99 1.96003C14.1729 2.5376 11.5812 3.91278 9.52355 5.92178C7.46596 7.93077 6.02922 10.4889 5.38449 13.2914C4.73975 16.0939 4.9142 19.0227 5.88705 21.7288C6.8599 24.435 8.59014 26.8045 10.8717 28.555C13.4766 30.4616 15.6944 32.8469 17.4067 35.5834L18.5733 37.5234C18.7215 37.7698 18.9309 37.9737 19.1812 38.1152C19.4315 38.2568 19.7141 38.3312 20.0017 38.3312C20.2892 38.3312 20.5719 38.2568 20.8221 38.1152C21.0724 37.9737 21.2818 37.7698 21.43 37.5234L22.5483 35.66C24.0394 33.039 26.0724 30.7662 28.5117 28.9934C30.4243 27.6774 32.005 25.935 33.129 23.9036C34.2531 21.8722 34.8896 19.6073 34.9885 17.2878C35.0875 14.9683 34.646 12.6575 33.699 10.5378C32.752 8.41803 31.3254 6.54737 29.5317 5.07337L29.53 5.0817ZM20 23.3334C18.6815 23.3334 17.3925 22.9424 16.2962 22.2098C15.1999 21.4773 14.3454 20.4361 13.8408 19.2179C13.3362 17.9997 13.2042 16.6593 13.4614 15.3661C13.7187 14.0729 14.3536 12.885 15.286 11.9527C16.2183 11.0203 17.4062 10.3854 18.6994 10.1281C19.9926 9.8709 21.333 10.0029 22.5512 10.5075C23.7694 11.0121 24.8106 11.8666 25.5431 12.9629C26.2757 14.0592 26.6667 15.3482 26.6667 16.6667C26.6667 18.4348 25.9643 20.1305 24.714 21.3807C23.4638 22.631 21.7681 23.3334 20 23.3334Z" fill="url(#paint0_linear_29_125)"/>
<defs>
<linearGradient id="paint0_linear_29_125" x1="20.0024" y1="1.66455" x2="20.0024" y2="38.3312" gradientUnits="userSpaceOnUse">
<stop stop-color="#FE582E"/>
<stop offset="1" stop-color="#F68D31"/>
</linearGradient>
</defs>
</svg>
