<svg width="40" height="40" viewBox="0 0 40 40" fill="none" xmlns="http://www.w3.org/2000/svg">
<path fill-rule="evenodd" clip-rule="evenodd" d="M12.5 2.5C12.5 2.16848 12.3683 1.85054 12.1339 1.61612C11.8995 1.3817 11.5815 1.25 11.25 1.25C10.9185 1.25 10.6005 1.3817 10.3661 1.61612C10.1317 1.85054 10 2.16848 10 2.5V4.375H6.25C4.92392 4.375 3.65215 4.90178 2.71447 5.83947C1.77678 6.77715 1.25 8.04892 1.25 9.375V33.75C1.25 35.0761 1.77678 36.3479 2.71447 37.2855C3.65215 38.2232 4.92392 38.75 6.25 38.75H33.75C35.0761 38.75 36.3479 38.2232 37.2855 37.2855C38.2232 36.3479 38.75 35.0761 38.75 33.75V9.375C38.75 8.04892 38.2232 6.77715 37.2855 5.83947C36.3479 4.90178 35.0761 4.375 33.75 4.375H32.5V8.75C32.5 9.08152 32.3683 9.39946 32.1339 9.63388C31.8995 9.8683 31.5815 10 31.25 10C30.9185 10 30.6005 9.8683 30.3661 9.63388C30.1317 9.39946 30 9.08152 30 8.75V2.5C30 2.16848 29.8683 1.85054 29.6339 1.61612C29.3995 1.3817 29.0815 1.25 28.75 1.25C28.4185 1.25 28.1005 1.3817 27.8661 1.61612C27.6317 1.85054 27.5 2.16848 27.5 2.5V4.375H15V8.75C15 9.08152 14.8683 9.39946 14.6339 9.63388C14.3995 9.8683 14.0815 10 13.75 10C13.4185 10 13.1005 9.8683 12.8661 9.63388C12.6317 9.39946 12.5 9.08152 12.5 8.75V2.5ZM3.75 15V33.75C3.75 34.413 4.01339 35.0489 4.48223 35.5178C4.95107 35.9866 5.58696 36.25 6.25 36.25H33.75C34.413 36.25 35.0489 35.9866 35.5178 35.5178C35.9866 35.0489 36.25 34.413 36.25 33.75V15H3.75Z" fill="url(#paint0_linear_29_128)"/>
<defs>
<linearGradient id="paint0_linear_29_128" x1="20" y1="1.25" x2="20" y2="38.75" gradientUnits="userSpaceOnUse">
<stop stop-color="#FE582E"/>
<stop offset="1" stop-color="#F68D31"/>
</linearGradient>
</defs>
</svg>
