<svg width="40" height="40" viewBox="0 0 40 40" fill="none" xmlns="http://www.w3.org/2000/svg">
<path d="M37.5 12.5V8.75C37.5 7.75544 37.1049 6.80161 36.4016 6.09835C35.6984 5.39509 34.7446 5 33.75 5H28.75V3.75C28.75 3.41848 28.6183 3.10054 28.3839 2.86612C28.1495 2.6317 27.8315 2.5 27.5 2.5C27.1685 2.5 26.8505 2.6317 26.6161 2.86612C26.3817 3.10054 26.25 3.41848 26.25 3.75V5H13.75V3.75C13.75 3.41848 13.6183 3.10054 13.3839 2.86612C13.1495 2.6317 12.8315 2.5 12.5 2.5C12.1685 2.5 11.8505 2.6317 11.6161 2.86612C11.3817 3.10054 11.25 3.41848 11.25 3.75V5H6.25C5.25544 5 4.30161 5.39509 3.59835 6.09835C2.89509 6.80161 2.5 7.75544 2.5 8.75V12.5H37.5ZM2.5 15V33.75C2.5 34.7446 2.89509 35.6984 3.59835 36.4016C4.30161 37.1049 5.25544 37.5 6.25 37.5H33.75C34.7446 37.5 35.6984 37.1049 36.4016 36.4016C37.1049 35.6984 37.5 34.7446 37.5 33.75V15H2.5ZM27.0625 22.1988L18.3125 29.6988C18.0733 29.9032 17.7658 30.01 17.4514 29.9977C17.137 29.9854 16.8387 29.855 16.6163 29.6325L12.8663 25.8825C12.6386 25.6467 12.5126 25.331 12.5154 25.0033C12.5183 24.6755 12.6497 24.362 12.8815 24.1302C13.1132 23.8985 13.4268 23.767 13.7545 23.7642C14.0822 23.7613 14.398 23.8873 14.6337 24.115L17.5663 27.0475L25.4412 20.2975C25.5652 20.1858 25.7102 20.1 25.8679 20.0453C26.0255 19.9905 26.1924 19.9678 26.3589 19.9786C26.5255 19.9894 26.6881 20.0334 26.8373 20.1081C26.9866 20.1827 27.1193 20.2865 27.2278 20.4132C27.3363 20.54 27.4183 20.6872 27.469 20.8462C27.5197 21.0051 27.5381 21.1726 27.523 21.3388C27.508 21.505 27.4598 21.6665 27.3814 21.8137C27.3029 21.961 27.1958 22.0911 27.0662 22.1963L27.0625 22.1988Z" fill="url(#paint0_linear_29_131)"/>
<defs>
<linearGradient id="paint0_linear_29_131" x1="20" y1="2.5" x2="20" y2="37.5" gradientUnits="userSpaceOnUse">
<stop stop-color="#FE582E"/>
<stop offset="1" stop-color="#F68D31"/>
</linearGradient>
</defs>
</svg>
